<?xml version="1.0" standalone="no"?><svg xmlns="http://www.w3.org/2000/svg" viewBox="0 0 1536 1536"><g fill="#222"><circle cx="364" cy="175" r="8"/><circle cx="1092" cy="1215" r="8"/><circle cx="250" cy="1504" r="8"/><circle cx="1415" cy="382" r="8"/><circle cx="996" cy="218" r="8"/><circle cx="641" cy="362" r="8"/><circle cx="1288" cy="1364" r="8"/><circle cx="1265" cy="1418" r="8"/><circle cx="538" cy="614" r="8"/><circle cx="881" cy="1413" r="8"/><circle cx="978" cy="1281" r="8"/><circle cx="484" cy="85" r="8"/><circle cx="1096" cy="1333" r="8"/><circle cx="919" cy="224" r="8"/><circle cx="300" cy="1512" r="8"/><circle cx="417" cy="136" r="8"/></g><g fill="#444"><circle cx="1523" cy="1337" r="5"/><circle cx="247" cy="754" r="5"/><circle cx="1459" cy="619" r="5"/><circle cx="664" cy="365" r="5"/><circle cx="407" cy="1178" r="5"/><circle cx="731" cy="784" r="5"/><circle cx="168" cy="1314" r="5"/><circle cx="829" cy="809" r="5"/><circle cx="818" cy="930" r="5"/><circle cx="111" cy="520" r="5"/><circle cx="525" cy="1482" r="5"/><circle cx="1373" cy="1035" r="5"/><circle cx="297" cy="66" r="5"/><circle cx="1435" cy="206" r="5"/><circle cx="1464" cy="111" r="5"/><circle cx="894" cy="54" r="5"/><circle cx="19" cy="175" r="5"/><circle cx="223" cy="413" r="5"/><circle cx="1251" cy="750" r="5"/><circle cx="978" cy="676" r="5"/></g><g fill="#666"><circle cx="145" cy="478" r="3"/><circle cx="1497" cy="90" r="3"/><circle cx="1050" cy="616" r="3"/><circle cx="690" cy="1114" r="3"/><circle cx="283" cy="992" r="3"/><circle cx="236" cy="139" r="3"/><circle cx="1408" cy="546" r="3"/><circle cx="1110" cy="1326" r="3"/><circle cx="368" cy="161" r="3"/><circle cx="317" cy="558" r="3"/><circle cx="832" cy="1372" r="3"/><circle cx="786" cy="923" r="3"/><circle cx="651" cy="864" r="3"/><circle cx="588" cy="1323" r="3"/><circle cx="749" cy="201" r="3"/><circle cx="300" cy="1090" r="3"/><circle cx="1213" cy="923" r="3"/><circle cx="95" cy="721" r="3"/><circle cx="45" cy="49" r="3"/><circle cx="1478" cy="59" r="3"/><circle cx="1123" cy="367" r="3"/><circle cx="349" cy="703" r="3"/><circle cx="171" cy="857" r="3"/><circle cx="142" cy="543" r="3"/></g></svg>
