<?xml version="1.0" standalone="no"?>
<svg xmlns="http://www.w3.org/2000/svg" viewBox="0 0 16 16">

	<path fill="#dde" d="
		M 15,16 L 2,16 Q 2,12 5,11 L 13,9 Q 16,12 15.5,16 Z
	" />

	<path fill="#e68" d="M 5,12 L 4.5,16 L 7,16 L 7,12 Z" />
	<path fill="#e68" d="
		M 12,8 Q 14,8 14,9 Q 14,13 7,13 Q 3.5,13 3.5,12 Q 3.5,9.5 5,9.5 Z
	" />

	<path fill="#bca" d="
		M 7,12 Q 13,10 13,4 Q 12,0 8,0 Q 3,0 3,5 Q 3,9 7,12
	" />

	<ellipse cx="4.375" cy="5.625" rx="1.25" ry="2.5" />
	<ellipse cx="8.75" cy="5.625" rx="1.25" ry="2.5" />
	<ellipse fill="#555" cx="4.875" cy="5" rx="0.625" ry="1.25" />
	<ellipse fill="#555" cx="9.25" cy="5" rx="0.625" ry="1.25" />

	<path fill="none" stroke="#231" stroke-width="0.75" stroke-linecap="round" d="
		M 5.75,9.25 Q 6.75,10.25 7.75,9.25
	" />
</svg>
